# xmcd CD database file
#
# Track frame offsets:
#	150
#	12111
#	28120
#	47063
#	62298
#	80426
#	94597
#	106395
#	124432
#	135982
#	147627
#	160782
#	176921
#	190021
#	205517
#	225691
#
# Disc length: 3213 seconds
#
# Revision: 1
# Processed by: cddbd v1.4PL0 Copyright (c) Steve Scherf et al.
# Submitted via: CDex 1.51
#
DISCID=d00c8b10
DTITLE=Various Artist - A 2001 Country Odyssey
DYEAR=2000
DGENRE=Country
TTITLE0=Tanya Tucker - Walking Shoes
TTITLE1=John Berry - Kiss Me In The Car
TTITLE2=Dan Seals - Addicted
TTITLE3=Deana Carter - We Danced Away
TTITLE4=Trace Adkins - (This Ain't No) Thinking Thing
TTITLE5=Suzy Bogguss - Drive South
TTITLE6=Emilio - I'd Love You To Love Me
TTITLE7=Pirates Of The Mississippi - Feed Jake
TTITLE8=Chris Ledoux and Garth Brooks - Watcha Gonna Do With A Cowboy
TTITLE9=Palomino Road - Why Baby Why
TTITLE10=Crystal Gayle - Why Have You Left The One You Left Me For
TTITLE11=Lacy J. Dalton - Black Coffee
TTITLE12=The Ranch - Walkin' The Country
TTITLE13=George Ducas - Tricky Moon
TTITLE14=Steve Wariner - Two Teardrops
TTITLE15=Dean Miller - Nowhere U.S.A.
EXTD=© 2001 Disky Communications Europe B.V. YEAR: 2000
EXTT0=
EXTT1=
EXTT2=
EXTT3=
EXTT4=
EXTT5=
EXTT6=
EXTT7=
EXTT8=
EXTT9=
EXTT10=
EXTT11=
EXTT12=
EXTT13=
EXTT14=
EXTT15=
PLAYORDER=
